<?xml version="1.0" encoding="UTF-8" standalone="no"?>
<!-- Created with Inkscape (http://www.inkscape.org/) -->

<svg
   xmlns:dc="http://purl.org/dc/elements/1.1/"
   xmlns:cc="http://creativecommons.org/ns#"
   xmlns:rdf="http://www.w3.org/1999/02/22-rdf-syntax-ns#"
   xmlns:svg="http://www.w3.org/2000/svg"
   xmlns="http://www.w3.org/2000/svg"
   xmlns:sodipodi="http://sodipodi.sourceforge.net/DTD/sodipodi-0.dtd"
   xmlns:inkscape="http://www.inkscape.org/namespaces/inkscape"
   width="104.74013mm"
   height="119.53442mm"
   viewBox="0 0 104.74013 119.53442"
   version="1.1"
   id="svg8047"
   inkscape:version="0.92.2 (5c3e80d, 2017-08-06)"
   sodipodi:docname="3D_PRINTER.svg"
   inkscape:export-filename="E:\user\Google Drive\MADNERD\github\publicDomainSVG\tools\3D_PRINTER.png"
   inkscape:export-xdpi="96"
   inkscape:export-ydpi="96">
  <defs
     id="defs8041" />
  <sodipodi:namedview
     id="base"
     pagecolor="#ffffff"
     bordercolor="#666666"
     borderopacity="1.0"
     inkscape:pageopacity="0.0"
     inkscape:pageshadow="2"
     inkscape:zoom="0.49497475"
     inkscape:cx="-145.42928"
     inkscape:cy="1.6375148"
     inkscape:document-units="mm"
     inkscape:current-layer="layer1"
     showgrid="false"
     inkscape:window-width="1137"
     inkscape:window-height="862"
     inkscape:window-x="87"
     inkscape:window-y="155"
     inkscape:window-maximized="0"
     fit-margin-top="0"
     fit-margin-left="0"
     fit-margin-right="0"
     fit-margin-bottom="0" />
  <metadata
     id="metadata8044">
    <rdf:RDF>
      <cc:Work
         rdf:about="">
        <dc:format>image/svg+xml</dc:format>
        <dc:type
           rdf:resource="http://purl.org/dc/dcmitype/StillImage" />
        <dc:title></dc:title>
      </cc:Work>
    </rdf:RDF>
  </metadata>
  <g
     inkscape:label="Calque 1"
     inkscape:groupmode="layer"
     id="layer1"
     transform="translate(-56.228724,-5.4338662)">
    <g
       transform="matrix(2.0681302,0,0,2.0681302,27.18382,-357.31682)"
       style="display:inline;opacity:1"
       id="g8254"
       inkscape:export-xdpi="96"
       inkscape:export-ydpi="96">
      <g
         id="g8530"
         transform="translate(-0.77539468,1.2923245)">
        <rect
           style="opacity:1;fill:#333333;fill-opacity:1;stroke:#000000;stroke-width:0.40599999;stroke-miterlimit:4;stroke-dasharray:none;stroke-dashoffset:0;stroke-opacity:0"
           id="rect2015"
           width="4.418725"
           height="1.5116692"
           x="32.803982"
           y="183.80745"
           rx="0.26180971" />
        <rect
           style="opacity:1;fill:#333333;fill-opacity:1;stroke:#000000;stroke-width:0.41255036;stroke-miterlimit:4;stroke-dasharray:none;stroke-dashoffset:0;stroke-opacity:0"
           id="rect2017"
           width="4.4021993"
           height="1.4469776"
           x="42.434597"
           y="183.89294"
           rx="0.27154961" />
        <rect
           style="display:inline;opacity:1;fill:#333333;fill-opacity:1;stroke:#000000;stroke-width:0.38526455;stroke-miterlimit:4;stroke-dasharray:none;stroke-dashoffset:0;stroke-opacity:0"
           id="rect2019-4"
           width="4.9627304"
           height="3.3887885"
           x="37.372707"
           y="179.27672"
           rx="0.26290819" />
        <rect
           style="opacity:1;fill:#edf2f8;fill-opacity:1;stroke:#000000;stroke-width:0.51202691;stroke-miterlimit:4;stroke-dasharray:none;stroke-dashoffset:0;stroke-opacity:1"
           id="rect2091"
           width="38.285473"
           height="10.824503"
           x="20.781473"
           y="219.7435"
           rx="0.42048696" />
        <rect
           style="opacity:1;fill:#edf2f8;fill-opacity:1;stroke:#000000;stroke-width:0.34845832;stroke-miterlimit:4;stroke-dasharray:none;stroke-dashoffset:0;stroke-opacity:1"
           id="rect2057"
           width="7.4996052"
           height="30.004936"
           x="20.822229"
           y="189.5446"
           rx="0.263834" />
        <path
           style="opacity:1;fill:none;fill-opacity:1;stroke:none;stroke-width:0.0612405;stroke-miterlimit:4;stroke-dasharray:none;stroke-opacity:1"
           d="m 20.280911,188.47165 c 0,-0.0551 -0.01503,-0.10022 -0.03341,-0.10022 -0.01837,0 -0.03341,-0.0376 -0.03341,-0.0835 0,-0.0752 0.01336,-0.0835 0.133635,-0.0835 0.09651,0 0.133635,-0.0139 0.133635,-0.0501 0,-0.0276 -0.02255,-0.0501 -0.05011,-0.0501 -0.02756,0 -0.05011,-0.0225 -0.05011,-0.0501 0,-0.0276 0.0213,-0.0501 0.04733,-0.0501 0.02603,0 0.05234,-0.0139 0.05846,-0.0309 0.0061,-0.017 0.05248,-0.0412 0.10301,-0.0537 0.07159,-0.0178 0.09187,-0.0109 0.09187,0.0309 0,0.0296 0.01503,0.0537 0.03341,0.0537 0.01838,0 0.03341,0.0225 0.03341,0.0501 0,0.0276 0.02255,0.0501 0.05011,0.0501 0.03847,0 0.05011,0.0427 0.05011,0.18374 0,0.14106 -0.01164,0.18375 -0.05011,0.18375 -0.03619,0 -0.05011,-0.0371 -0.05011,-0.13363 0,-0.12027 -0.0084,-0.13364 -0.08352,-0.13364 -0.06682,0 -0.08352,0.0167 -0.08352,0.0835 0,0.0705 -0.01559,0.0835 -0.100226,0.0835 -0.08909,0 -0.100226,0.0111 -0.100226,0.10022 0,0.0668 -0.0167,0.10023 -0.05011,0.10023 -0.03341,0 -0.05011,-0.0334 -0.05011,-0.10023 z m 0.400904,-0.41761 c 0,-0.0276 -0.02255,-0.0501 -0.05011,-0.0501 -0.02756,0 -0.05011,0.0225 -0.05011,0.0501 0,0.0276 0.02255,0.0501 0.05011,0.0501 0.02756,0 0.05011,-0.0225 0.05011,-0.0501 z"
           id="path24003"
           inkscape:connector-curvature="0" />
        <rect
           style="opacity:1;fill:#edf2f8;fill-opacity:1;stroke:#000000;stroke-width:0.40599999;stroke-miterlimit:4;stroke-dasharray:none;stroke-dashoffset:0;stroke-opacity:1"
           id="rect1123"
           width="1.3155835"
           height="56.07674"
           x="15.022435"
           y="175.62656"
           rx="0.26180971" />
        <rect
           style="display:inline;opacity:1;fill:#edf2f8;fill-opacity:1;stroke:#000000;stroke-width:0.40599999;stroke-miterlimit:4;stroke-dasharray:none;stroke-dashoffset:0;stroke-opacity:1"
           id="rect1123-8"
           width="1.3155835"
           height="56.07674"
           x="63.945694"
           y="175.54434"
           rx="0.26180971" />
        <rect
           style="opacity:1;fill:#edf2f8;fill-opacity:1;stroke:#000000;stroke-width:0.40599999;stroke-miterlimit:4;stroke-dasharray:none;stroke-dashoffset:0;stroke-opacity:1"
           id="rect1945"
           width="4.2756457"
           height="55.501175"
           x="16.50247"
           y="175.79102"
           rx="0.26180971" />
        <rect
           style="display:inline;opacity:1;fill:#edf2f8;fill-opacity:1;stroke:#000000;stroke-width:0.4081485;stroke-miterlimit:4;stroke-dasharray:none;stroke-dashoffset:0;stroke-opacity:1"
           id="rect2057-1"
           width="10.482202"
           height="29.451902"
           x="51.570538"
           y="190.00139"
           rx="0.36876088" />
        <rect
           style="display:inline;opacity:1;fill:#edf2f8;fill-opacity:1;stroke:#000000;stroke-width:0.40599999;stroke-miterlimit:4;stroke-dasharray:none;stroke-dashoffset:0;stroke-opacity:1"
           id="rect1945-6"
           width="4.2756457"
           height="55.501175"
           x="59.423374"
           y="175.91434"
           rx="0.26180971" />
        <rect
           style="opacity:1;fill:#edf2f8;fill-opacity:1;stroke:#000000;stroke-width:0.40599999;stroke-miterlimit:4;stroke-dasharray:none;stroke-dashoffset:0;stroke-opacity:1"
           id="rect1962"
           width="38.480816"
           height="5.1801095"
           x="20.860338"
           y="174.31099"
           rx="0.26180971" />
        <rect
           style="opacity:1;fill:#1a1a1a;fill-opacity:1;stroke:#000000;stroke-width:0.40599999;stroke-miterlimit:4;stroke-dasharray:none;stroke-dashoffset:0;stroke-opacity:1"
           id="rect1966"
           width="1.2333595"
           height="2.220047"
           x="21.55924"
           y="203.95271"
           rx="0.26180971" />
        <rect
           style="opacity:1;fill:#1a1a1a;fill-opacity:1;stroke:#000000;stroke-width:0.40599999;stroke-miterlimit:4;stroke-dasharray:none;stroke-dashoffset:0;stroke-opacity:1"
           id="rect1968"
           width="1.5622553"
           height="2.1789351"
           x="56.956654"
           y="203.99384"
           rx="0.26180971" />
        <rect
           style="display:inline;opacity:1;fill:#1a1a1a;fill-opacity:1;stroke:#000000;stroke-width:0.24092671;stroke-miterlimit:4;stroke-dasharray:none;stroke-dashoffset:0;stroke-opacity:1"
           id="rect1966-1"
           width="2.0670557"
           height="0.46646336"
           x="21.052973"
           y="206.34644"
           rx="0.43878144" />
        <rect
           style="display:inline;opacity:1;fill:#1a1a1a;fill-opacity:1;stroke:#000000;stroke-width:0.24092671;stroke-miterlimit:4;stroke-dasharray:none;stroke-dashoffset:0;stroke-opacity:1"
           id="rect1966-1-3"
           width="2.0670557"
           height="0.46646336"
           x="56.704258"
           y="206.22731"
           rx="0.43878144" />
        <path
           style="fill:#7c8c9b;fill-opacity:1;stroke:#000000;stroke-width:0.26458332px;stroke-linecap:butt;stroke-linejoin:miter;stroke-opacity:1"
           d="m 32.944352,185.38722 -0.05814,1.39539 2.790774,1.22096 1.453529,0.0581 0.05814,-2.67449 z"
           id="path2021"
           inkscape:connector-curvature="0" />
        <path
           style="display:inline;opacity:1;fill:#7c8c9b;fill-opacity:1;stroke:#000000;stroke-width:0.26458332px;stroke-linecap:butt;stroke-linejoin:miter;stroke-opacity:1"
           d="m 46.665286,185.44277 0.05814,1.39539 -2.790774,1.22096 -1.453529,0.0581 -0.05814,-2.67449 z"
           id="path2021-7"
           inkscape:connector-curvature="0" />
        <path
           style="fill:#7c8c9b;fill-opacity:1;stroke:#000000;stroke-width:0.26458332px;stroke-linecap:butt;stroke-linejoin:miter;stroke-opacity:1"
           d="m 37.363076,186.55004 c 0,0 0.174424,1.6861 0.40699,1.6861 0.232564,0 4.128019,-0.0581 4.128019,-0.0581 l 0.465129,-1.62796 z"
           id="path2038"
           inkscape:connector-curvature="0" />
        <path
           style="fill:#ff6600;fill-opacity:1;stroke:none;stroke-width:0.45980632px;stroke-linecap:butt;stroke-linejoin:miter;stroke-opacity:1"
           d="m 38.089842,188.35492 0.808325,1.11144 0.934625,-1.11144 z"
           id="path2040"
           inkscape:connector-curvature="0" />
        <rect
           style="opacity:1;fill:#666666;fill-opacity:1;stroke:#000000;stroke-width:0.40599999;stroke-miterlimit:4;stroke-dasharray:none;stroke-dashoffset:0;stroke-opacity:1"
           id="rect2093"
           width="5.0156612"
           height="1.1511354"
           x="29.576078"
           y="224.38536"
           rx="0.26180971" />
        <path
           style="opacity:1;fill:#666666;fill-opacity:1;stroke:#000000;stroke-width:0.40599999;stroke-miterlimit:4;stroke-dasharray:none;stroke-dashoffset:0;stroke-opacity:1"
           id="path2095"
           sodipodi:type="arc"
           sodipodi:cx="46.473103"
           sodipodi:cy="225.08427"
           sodipodi:rx="2.425607"
           sodipodi:ry="2.5078306"
           sodipodi:start="6.2774606"
           sodipodi:end="6.2774432"
           sodipodi:open="true"
           d="m 48.89867,225.06992 a 2.425607,2.5078306 0 0 1 -2.411671,2.52214 2.425607,2.5078306 0 0 1 -2.439464,-2.49341 2.425607,2.5078306 0 0 1 2.41165,-2.52217 2.425607,2.5078306 0 0 1 2.439485,2.49339" />
        <path
           style="display:inline;opacity:1;fill:#1a1a1a;fill-opacity:1;stroke:#000000;stroke-width:0.1042912;stroke-miterlimit:4;stroke-dasharray:none;stroke-dashoffset:0;stroke-opacity:1"
           id="path2095-0"
           sodipodi:type="arc"
           sodipodi:cx="46.78088"
           sodipodi:cy="223.93315"
           sodipodi:rx="0.62307751"
           sodipodi:ry="0.64419878"
           sodipodi:start="6.2774606"
           sodipodi:end="6.2774432"
           sodipodi:open="true"
           d="m 47.403947,223.92946 a 0.62307751,0.64419878 0 0 1 -0.619497,0.64788 0.62307751,0.64419878 0 0 1 -0.626637,-0.6405 0.62307751,0.64419878 0 0 1 0.619492,-0.64788 0.62307751,0.64419878 0 0 1 0.626642,0.64049" />
        <rect
           style="opacity:1;fill:#333333;fill-opacity:1;stroke:#000000;stroke-width:0.40599999;stroke-miterlimit:4;stroke-dasharray:none;stroke-dashoffset:0;stroke-opacity:1"
           id="rect2112"
           width="7.2357087"
           height="3.9467502"
           x="35.578426"
           y="222.90535"
           rx="0.26180971" />
        <rect
           style="opacity:1;fill:#008b84;fill-opacity:1;stroke:#000000;stroke-width:0.40599999;stroke-miterlimit:4;stroke-dasharray:none;stroke-dashoffset:0;stroke-opacity:1"
           id="rect1964"
           width="37.576351"
           height="1.1511354"
           x="21.271456"
           y="202.59601"
           rx="0.26180971" />
        <rect
           style="display:inline;opacity:1;fill:#1a1a1a;fill-opacity:1;stroke:#000000;stroke-width:0.26585999;stroke-miterlimit:4;stroke-dasharray:none;stroke-dashoffset:0;stroke-opacity:1"
           id="rect1964-0"
           width="33.646404"
           height="0.55125976"
           x="23.092543"
           y="205.52711"
           rx="0.23442818" />
        <rect
           style="opacity:1;fill:#7c8c9b;fill-opacity:1;stroke:#000000;stroke-width:0.43402722;stroke-miterlimit:4;stroke-dasharray:none;stroke-dashoffset:0;stroke-opacity:0"
           id="rect2019"
           width="5.4372377"
           height="3.9255693"
           x="37.115456"
           y="182.49419"
           rx="0.28804597" />
        <text
           xml:space="preserve"
           style="font-style:normal;font-weight:normal;font-size:4.23333311px;line-height:1.25;font-family:sans-serif;letter-spacing:0px;word-spacing:0px;fill:#000000;fill-opacity:1;stroke:none;stroke-width:0.26458332"
           x="29.455885"
           y="178.41028"
           id="text2118"><tspan
             sodipodi:role="line"
             id="tspan2116"
             x="29.455885"
             y="178.41028"
             style="stroke-width:0.26458332">3D Printer</tspan></text>
      </g>
    </g>
  </g>
</svg>
